<?xml version="1.0" encoding="utf-8"?>
<svg viewBox="0 0 500 500" xmlns="http://www.w3.org/2000/svg">
  <path d="M 280.912 409.089 C 282.227 398.664 288.537 391.978 297.909 389.368 C 292.505 378.401 289.926 367.275 291.157 357.509 C 293.129 341.862 304.423 333.367 320.043 333.223 C 320.081 332.049 320.174 330.87 320.322 329.687 C 323.219 306.72 346.277 291.346 371.827 295.347 C 375.447 295.913 378.922 296.838 382.214 298.074 C 392.856 284.821 409.307 275.491 426.786 274.373 C 439.906 273.532 451.264 277.47 459.261 284.603 C 472.516 282.302 486.047 281.188 499.627 281.297 L 499.627 499.741 L 296.142 499.741 C 286.063 483.183 285.961 464.45 294.005 448.384 C 284.558 435.002 279.434 420.812 280.912 409.089 Z" style="fill: rgb(254, 252, 247);"/>
  <path d="M -133.733 230.935 C -132.532 220.934 -126.771 214.521 -118.213 212.017 C -123.148 201.497 -125.502 190.824 -124.379 181.456 C -122.578 166.446 -112.266 158.298 -98.004 158.159 C -97.969 157.034 -97.884 155.902 -97.749 154.768 C -95.104 132.736 -74.05 117.988 -50.722 121.826 C -47.416 122.369 -44.243 123.257 -41.238 124.442 C -31.521 111.729 -16.502 102.779 -0.542 101.707 C 11.438 100.9 21.808 104.677 29.11 111.52 C 41.213 109.313 53.567 108.244 65.966 108.349 L 65.966 317.894 L -119.827 317.894 C -129.03 302.011 -129.123 284.041 -121.778 268.629 C -130.404 255.792 -135.082 242.18 -133.733 230.935 Z" style="fill: rgb(254, 252, 247);" transform="matrix(-0.823719, 0.566999, -0.566999, -0.823719, 56.922892, 401.795924)"/>
</svg>