<?xml version="1.0" encoding="utf-8"?>
<svg viewBox="0 0 500 500" xmlns="http://www.w3.org/2000/svg" xmlns:bx="https://boxy-svg.com">
  <path d="M 50 0 L 450 0 C 477.614 0 500 22.386 500 50 L 500 293.667 C 487.583 293.757 475.224 294.869 463.095 296.974 C 455.098 289.841 443.74 285.903 430.62 286.744 C 413.141 287.862 396.69 297.192 386.048 310.445 C 382.756 309.209 379.281 308.284 375.661 307.718 C 350.111 303.717 327.053 319.091 324.156 342.058 C 324.008 343.241 323.915 344.42 323.877 345.594 C 308.257 345.738 296.963 354.233 294.991 369.88 C 293.76 379.646 296.339 390.772 301.743 401.739 C 292.371 404.349 286.061 411.035 284.746 421.46 C 283.268 433.183 288.392 447.373 297.839 460.755 C 291.707 473.002 290.309 486.798 294.455 500 L 50 500 C 22.386 500 0 477.614 0 450 L 0 332.628 C 1.195 331.85 2.375 331.002 3.536 330.082 C 16.075 320.149 23.371 304.261 24.167 288.28 C 27.314 287.552 30.432 286.484 33.463 285.057 C 54.855 274.992 63.835 250.906 53.522 231.258 C 52.99 230.247 52.418 229.267 51.809 228.32 C 63.478 220.119 67.352 207.561 60.325 194.175 C 55.939 185.822 47.948 178.365 37.918 172.498 C 43.548 165.583 44.656 157.033 39.975 148.114 C 34.71 138.086 23.139 129.526 8.755 123.843 C 7.485 115.876 4.522 108.379 0 101.859 L 0 50 C 0 22.386 22.386 0 50 0 Z" style="fill: rgb(40, 124, 196);"/>
  <g>
    <g>
      <g>
        <g transform="matrix(1, 0, 0, 0.925921, 8, 27.343864)" style="">
          <path d="M 753.337 485.843 Q 757.519 475.057 769.12 485.843 L 783.954 499.636 Q 795.555 510.422 779.772 510.422 L 759.589 510.422 Q 743.806 510.422 747.989 499.636 Z" style="fill: rgb(40, 124, 196);" transform="matrix(-0.950441, 0.310906, -0.280706, -0.96032, 1299.529175, 559.51001)" bx:shape="triangle 743.806 475.057 51.749 35.365 0.265 0.305 1@94c507e1" bx:origin="0.7 0.507"/>
          <path d="M 246.152 227.39 Q 247.483 223.333 250.261 227.39 L 256.089 235.902 Q 258.867 239.959 254.758 239.959 L 246.136 239.959 Q 242.027 239.959 243.358 235.902 Z" style="fill: rgb(40, 124, 196);" transform="matrix(0.156586, 0.987664, -1.047036, -0.217898, 645.05835, 266.994232)" bx:shape="triangle 242.027 223.333 16.84 16.626 0.324 0.244 1@8a4e8854" bx:origin="0.55 0.57"/>
          <path d="M 382.916 288.289 Q 384.987 283.145 389.308 288.289 L 398.375 299.081 Q 402.696 304.225 396.304 304.225 L 382.891 304.225 Q 376.499 304.225 378.57 299.081 Z" style="fill: rgb(40, 124, 196);" transform="matrix(0.304872, 0.952393, -1.065323, -0.04791, 620.581604, -5.102)" bx:shape="triangle 376.499 283.145 26.197 21.08 0.324 0.244 1@7f594589"/>
          <ellipse style="fill: rgb(40, 124, 196);" cx="473.252" cy="379.307" rx="3.906" ry="3.526"/>
          <ellipse style="fill: rgb(40, 124, 196);" cx="425.723" cy="431.717" rx="8.46" ry="6.508" transform="matrix(0.826501, 0.562935, -0.575061, 0.818242, 345.79718, -149.006822)" bx:origin="0.406 0.489"/>
          <ellipse style="fill: rgb(40, 124, 196);" cx="371.98" cy="389.391" rx="6.074" ry="5.858"/>
          <ellipse style="fill: rgb(40, 124, 196);" cx="325.615" cy="404.063" rx="11.667" ry="8.172" transform="matrix(-0.131874, 0.991266, -0.991799, -0.127872, 766.617961, 163.297861)"/>
        </g>
      </g>
    </g>
  </g>
  <path d="M 342.069 271.189 Q 344.37 265.168 349.216 271.189 L 355.412 278.888 Q 360.258 284.909 353.111 284.909 L 343.972 284.909 Q 336.825 284.909 339.126 278.888 Z" style="fill: rgb(40, 124, 196);" transform="matrix(0.734447, 0.678666, -0.688856, 0.725031, -38.899723, -248.31485)" bx:shape="triangle 336.825 265.168 23.433 19.741 0.322 0.305 1@5d07f0d3" bx:origin="0.7 0.507"/>
  <path d="M 244.385 207.774 Q 246.03 203.161 249.491 207.774 L 253.918 213.672 Q 257.38 218.285 252.274 218.285 L 245.745 218.285 Q 240.639 218.285 242.283 213.672 Z" style="fill: rgb(40, 124, 196);" transform="matrix(-0.28751, 0.957778, -0.96073, -0.277674, 293.675842, -10.396815)" bx:shape="triangle 240.639 203.161 16.741 15.124 0.322 0.305 1@4def501f" bx:origin="0.7 0.507"/>
  <g transform="matrix(1, 0, 0, 1.256609, 15.103483, -63.218712)" style="">
    <g transform="matrix(1.034966, 0, 0, 1.034966, -7.583788, -11.84605)">
      <path d="M 268.515 291.671 Q 283 266.469 297.484 291.671 L 340.936 367.279 Q 355.42 392.481 326.452 392.481 L 239.547 392.481 Q 210.579 392.481 225.063 367.279 Z" style="fill: rgb(254, 252, 247);" transform="matrix(0.857167, 0.515038, -0.515038, 0.857167, 104.365913, -197.34787)" bx:shape="triangle 210.579 266.469 144.841 126.012 0.5 0.2 1@8b7e68bc" bx:origin="0.486 0.596"/>
      <path d="M 268.515 291.671 Q 283 266.469 297.484 291.671 L 340.936 367.279 Q 355.42 392.481 326.452 392.481 L 239.547 392.481 Q 210.579 392.481 225.063 367.279 Z" style="fill: rgb(40, 124, 196);" transform="matrix(0.857167, 0.515038, -0.515038, 0.857167, 138.355545, -197.226166)" bx:shape="triangle 210.579 266.469 144.841 126.012 0.5 0.2 1@8b7e68bc" bx:origin="0.486 0.596"/>
    </g>
    <g transform="matrix(1.034966, 0, 0, 1.034966, -15.738242, -10.531588)">
      <path d="M 268.515 291.671 Q 283 266.469 297.484 291.671 L 340.936 367.279 Q 355.42 392.481 326.452 392.481 L 239.547 392.481 Q 210.579 392.481 225.063 367.279 Z" style="fill: rgb(254, 252, 247);" transform="matrix(-0.857167, -0.515038, 0.515038, -0.857167, 372.481964, 695.79541)" bx:shape="triangle 210.579 266.469 144.841 126.012 0.5 0.2 1@8b7e68bc" bx:origin="0.486 0.596"/>
      <path d="M 268.515 291.671 Q 283 266.469 297.484 291.671 L 340.936 367.279 Q 355.42 392.481 326.452 392.481 L 239.547 392.481 Q 210.579 392.481 225.063 367.279 Z" style="fill: rgb(40, 124, 196);" transform="matrix(-0.857167, -0.515038, 0.515038, -0.857167, 338.49234, 694.70752)" bx:shape="triangle 210.579 266.469 144.841 126.012 0.5 0.2 1@8b7e68bc" bx:origin="0.486 0.596"/>
    </g>
  </g>
</svg>