<?xml version="1.0" encoding="utf-8"?>
<svg viewBox="0 0 500 500" xmlns="http://www.w3.org/2000/svg" xmlns:bx="https://boxy-svg.com">
  <path d="M 761.991 497.658 Q 766.222 486.609 777.956 497.658 L 792.96 511.785 Q 804.694 522.834 788.729 522.834 L 768.316 522.834 Q 752.351 522.834 756.582 511.785 Z" style="" transform="matrix(-0.948981, 0.315334, -0.276765, -0.961797, 1309.468628, 559.7099)" bx:shape="triangle 752.351 486.609 52.343 36.225 0.265 0.305 1@2aeb0acf" bx:origin="0.7 0.507"/>
  <path d="M 252.43 229.736 Q 253.795 225.637 256.644 229.736 L 262.621 238.336 Q 265.469 242.435 261.255 242.435 L 252.414 242.435 Q 248.2 242.435 249.565 238.336 Z" style="" transform="matrix(0.154209, 0.988038, -1.046639, -0.221257, 648.49585, 259.620178)" bx:shape="triangle 248.2 225.637 17.269 16.798 0.324 0.244 1@87ae5aeb" bx:origin="0.55 0.57"/>
  <path d="M 392.267 291.571 Q 394.388 286.369 398.815 291.571 L 408.103 302.487 Q 412.53 307.689 405.982 307.689 L 392.241 307.689 Q 385.693 307.689 387.815 302.487 Z" style="" transform="matrix(0.300561, 0.953763, -1.063793, -0.048597, 623.77594, -19.521288)" bx:shape="triangle 385.693 286.369 26.837 21.32 0.324 0.244 1@6240fd56"/>
  <path d="M 347.992 276.192 Q 350.333 270.06 355.263 276.192 L 361.566 284.033 Q 366.496 290.165 359.225 290.165 L 349.928 290.165 Q 342.657 290.165 344.998 284.033 Z" style="" transform="matrix(0.729118, 0.684388, -0.683097, 0.73033, -41.247211, -263.902039)" bx:shape="triangle 342.657 270.06 23.839 20.105 0.322 0.305 1@04d3f0bf" bx:origin="0.7 0.507"/>
  <path d="M 250.393 210.106 Q 252.077 205.441 255.624 210.106 L 260.16 216.07 Q 263.707 220.735 258.475 220.735 L 251.786 220.735 Q 246.554 220.735 248.239 216.07 Z" style="" transform="matrix(-0.2834, 0.959002, -0.959504, -0.281702, 294.632385, -19.823736)" bx:shape="triangle 246.554 205.441 17.153 15.294 0.322 0.305 1@e3a4707f" bx:origin="0.7 0.507"/>
  <ellipse style="" cx="474.983" cy="374.841" rx="3.945" ry="3.617"/>
  <ellipse style="" cx="425.723" cy="431.717" rx="8.587" ry="6.643" transform="matrix(0.822361, 0.568966, -0.568966, 0.822361, 346.422028, -156.14587)" bx:origin="0.406 0.489"/>
  <ellipse style="" cx="372.705" cy="385.186" rx="6.134" ry="6.01"/>
  <ellipse style="" cx="325.615" cy="404.063" rx="11.966" ry="8.255" transform="matrix(-0.129858, 0.991533, -0.991533, -0.129858, 766.092729, 160.973506)"/>
</svg>