<?xml version="1.0" encoding="utf-8"?>
<svg viewBox="0 0 770 770" xmlns="http://www.w3.org/2000/svg">
  <path class="st0" d="M 553.71,529.39c-90.86,9.14-57.64,98.85-55.31,101.64c0,0-66.53,35.5-25.33,81.35 c-2.76-0.22-9.23-0.72-10.22-0.78c0.61,0.06,3.48,0.31,10.3,0.87c-12.33-0.03-122.49,0.65-359.22-0.13c0,0-13.01-1.55-26.03-8.5 c-13.01-6.96-27.02-20.31-27.02-45.93c0-51.23-0.15-265.1-0.15-265.1s0,13.64,0-76.83c49.77,20.45,92.27-29.32,70.58-75.77 c30-12.86,21.49-71.2-15.57-71.45c7.49-27.55-32.63-54.31-54.66-33.92c-2.35-27.93,0.07-29.67,0.07-29.67s6.16-46.9,53.24-46.9 h545.76c0,0,54.43,5.43,55.01,51.33c0.58,45.91,0,347.26,0,347.26s-44.85-35.08-80.42,11.34 C560.13,451.3,556.5,504.25,553.71,529.39"/>
</svg>