<?xml version="1.0" encoding="utf-8"?>
<svg viewBox="0 0 770 770" xmlns="http://www.w3.org/2000/svg">
  <path class="st0" d="M 553.71 529.39 C 462.85 538.53 496.07 628.24 498.4 631.03 C 498.4 631.03 431.87 666.53 473.07 712.38 C 470.31 712.16 463.84 711.66 462.85 711.6 C 463.46 711.66 466.33 711.91 473.15 712.47 C 460.82 712.44 350.66 713.12 113.93 712.34 C 113.93 712.34 100.92 710.79 87.9 703.84 C 74.89 696.88 60.88 683.53 60.88 657.91 C 60.88 606.68 60.73 392.81 60.73 392.81 C 60.73 392.81 60.73 406.45 60.73 315.98 C 110.5 336.43 153 286.66 131.31 240.21 C 161.31 227.35 152.8 169.01 115.74 168.76 C 123.23 141.21 83.11 114.45 61.08 134.84 C 58.73 106.91 61.15 105.17 61.15 105.17 C 61.15 105.17 67.31 58.27 114.39 58.27 L 660.15 58.27 C 660.15 58.27 714.58 63.7 715.16 109.6 C 715.74 155.51 715.16 456.86 715.16 456.86 C 715.16 456.86 670.31 421.78 634.74 468.2 C 560.13 451.3 556.5 504.25 553.71 529.39 Z M 339.16 471.26 C 345.79 462.43 344.01 449.89 335.18 443.26 L 261.15 387.65 C 250.5 379.65 250.5 363.67 261.15 355.67 L 335.18 300.06 C 344.01 293.43 345.79 280.89 339.16 272.06 C 332.53 263.23 319.99 261.45 311.16 268.08 L 194.55 355.67 C 183.9 363.67 183.9 379.65 194.55 387.65 L 311.16 475.24 C 319.99 481.87 332.53 480.09 339.16 471.26 Z M 465 475.24 L 581.61 387.65 C 592.26 379.65 592.26 363.67 581.61 355.67 L 465 268.07 C 456.17 261.44 443.63 263.22 437 272.05 C 430.37 280.88 432.15 293.42 440.98 300.05 L 515.01 355.66 C 525.66 363.66 525.66 379.64 515.01 387.64 L 440.98 443.25 C 432.15 449.88 430.37 462.42 437 471.25 C 443.63 480.09 456.17 481.87 465 475.24 Z"/>
  <path d="M 692.63 492.4 c4.49,5.48,9.3,10.73,13.37,16.51c4.56,6.48,3.5,12.32-3.49,15.92c-13.95,7.18-28.54,13.04-43.75,17 c-6.76,1.76-9.3-1.25-6.57-7.88c5.88-14.28,13.23-27.91,21.88-40.66C679.87,484.69,685.78,484.94,692.63,492.4z"/>
  <path d="M 533.33 639.66 c0.04-12.14,7.51-21.92,16.76-21.96c8.35-0.04,14.06,7.47,14,18.4c-0.07,11.84-7.92,22.2-16.79,22.16 C539.08,658.22,533.29,650.51,533.33,639.66z"/>
  <path d="M 600.43 520.66 c-0.68-5.38,1.3-6.74,4.27-5.83c8.18,2.5,16.33,5.16,24.33,8.18c3.62,1.36,4.22,4.33,1.19,7.08c-4.86,4.4-9.8,8.72-14.93,12.78 c-2.49,1.97-5.69,1.87-7.02-1.34C605.16,534.12,602.58,526.49,600.43,520.66z"/>
  <path d="M 688.97 639.87 c-7.56-4.28-11.06-13.25-7.86-18.59c2.93-4.9,7.22-4.98,11.79-2.61c6.77,3.51,10.48,13.3,7,18.65 C696.75,642.15,692.45,641.66,688.97,639.87z"/>
  <path d="M 576.18 688.48 c-10.61,0.21-19.88-7.02-19.84-14.63c0.03-6.97,4.48-9.73,10.76-10.09c9.3-0.53,19.3,7.43,18.97,15.23 C585.78,686.03,580.95,688.19,576.18,688.48z"/>
  <path d="M 553.91 579.31 c-5.85-0.47-10.22-3.09-10.28-9.05c-0.06-5.92,4.08-9.09,9.89-9.12c5.75-0.03,10.04,2.94,10.17,8.88 C563.82,576.07,559.36,578.59,553.91,579.31z"/>
  <path d="M 568.09 595.94 c1.81-4.15,4.11-4.39,6.84-0.41c3.02,4.39,6.18,8.67,9.07,13.14c2.57,3.98,0.95,5.58-3.41,5.18c-1.26-0.12-2.52-0.26-3.78-0.41 C562.06,611.76,560.65,609.02,568.09,595.94z"/>
  <path d="M 692.06 560.53 c-4.87-0.35-9.1-2.07-9.19-7.72c-0.08-5.2,3.66-7.44,8.47-7.61c4.99-0.18,9.34,1.41,9.62,7.15 C701.24,558.03,697.22,560.05,692.06,560.53z"/>
  <path d="M 526.32 702.49 c-2.98-0.43-5.56-2.53-5.61-9.43c-0.05-6.36,2.24-9.09,5.17-9.3c3.05-0.21,5.7,1.72,5.88,8.73 C531.93,699.43,529.47,701.9,526.32,702.49z"/>
  <path d="M 108.61 228.75 c0.42,1.39,1.14,3.55,1.72,5.75c0.63,2.37-0.47,3.68-3.28,3.18c-3.32-0.6-6.6-1.35-9.79-2.25c-2.56-0.72-2.93-2.44-1.14-4.58 c1.48-1.78,3.07-3.5,4.7-5.18c3.34-3.43,4.73-3.35,6.49,0.29C107.64,226.62,107.95,227.31,108.61,228.75z"/>
  <path d="M 82.13 266.74 c-1.06,1-2.66,2.61-4.37,4.11c-1.84,1.62-3.51,1.23-4.31-1.51c-0.95-3.24-1.75-6.51-2.37-9.77c-0.5-2.61,0.87-3.71,3.59-3.07 c2.25,0.53,4.51,1.18,6.74,1.89c4.56,1.45,5.11,2.73,2.65,5.93C83.59,264.92,83.11,265.5,82.13,266.74z"/>
  <path d="M 102.76 211 c-0.25,0.38-0.64,1.59-1.47,2.08c-5.91,3.46-12.25,5.96-18.94,7.41c-2.17,0.47-4.47-0.55-4.07-3.03 c0.95-5.87,2.3-11.72,5.53-16.86c0.54-0.85,1.78-1.49,2.82-1.76C89.54,198.08,102.46,207.35,102.76,211z"/>
</svg>