<?xml version="1.0" encoding="utf-8"?>
<svg viewBox="0 0 770 770" xmlns="http://www.w3.org/2000/svg">
  <path class="st0" d="M 553.71,529.39c-90.86,9.14-57.64,98.85-55.31,101.64c0,0-66.53,35.5-25.33,81.35 c-2.76-0.22-9.23-0.72-10.22-0.78c0.61,0.06,3.48,0.31,10.3,0.87c-12.33-0.03-122.49,0.65-359.22-0.13c0,0-13.01-1.55-26.03-8.5 c-13.01-6.96-27.02-20.31-27.02-45.93c0-51.23-0.15-265.1-0.15-265.1s0,13.64,0-76.83c49.77,20.45,92.27-29.32,70.58-75.77 c30-12.86,21.49-71.2-15.57-71.45c7.49-27.55-32.63-54.31-54.66-33.92c-2.35-27.93,0.07-29.67,0.07-29.67s6.16-46.9,53.24-46.9 h545.76c0,0,54.43,5.43,55.01,51.33c0.58,45.91,0,347.26,0,347.26s-44.85-35.08-80.42,11.34 C560.13,451.3,556.5,504.25,553.71,529.39"/>
  <path d="M 692.63 492.4 c4.49,5.48,9.3,10.73,13.37,16.51c4.56,6.48,3.5,12.32-3.49,15.92c-13.95,7.18-28.54,13.04-43.75,17 c-6.76,1.76-9.3-1.25-6.57-7.88c5.88-14.28,13.23-27.91,21.88-40.66C679.87,484.69,685.78,484.94,692.63,492.4z"/>
  <path d="M 533.33 639.66 c0.04-12.14,7.51-21.92,16.76-21.96c8.35-0.04,14.06,7.47,14,18.4c-0.07,11.84-7.92,22.2-16.79,22.16 C539.08,658.22,533.29,650.51,533.33,639.66z"/>
  <path d="M 600.43 520.66 c-0.68-5.38,1.3-6.74,4.27-5.83c8.18,2.5,16.33,5.16,24.33,8.18c3.62,1.36,4.22,4.33,1.19,7.08c-4.86,4.4-9.8,8.72-14.93,12.78 c-2.49,1.97-5.69,1.87-7.02-1.34C605.16,534.12,602.58,526.49,600.43,520.66z"/>
  <path d="M 688.97 639.87 c-7.56-4.28-11.06-13.25-7.86-18.59c2.93-4.9,7.22-4.98,11.79-2.61c6.77,3.51,10.48,13.3,7,18.65 C696.75,642.15,692.45,641.66,688.97,639.87z"/>
  <path d="M 576.18 688.48 c-10.61,0.21-19.88-7.02-19.84-14.63c0.03-6.97,4.48-9.73,10.76-10.09c9.3-0.53,19.3,7.43,18.97,15.23 C585.78,686.03,580.95,688.19,576.18,688.48z"/>
  <path d="M 553.91 579.31 c-5.85-0.47-10.22-3.09-10.28-9.05c-0.06-5.92,4.08-9.09,9.89-9.12c5.75-0.03,10.04,2.94,10.17,8.88 C563.82,576.07,559.36,578.59,553.91,579.31z"/>
  <path d="M 568.09 595.94 c1.81-4.15,4.11-4.39,6.84-0.41c3.02,4.39,6.18,8.67,9.07,13.14c2.57,3.98,0.95,5.58-3.41,5.18c-1.26-0.12-2.52-0.26-3.78-0.41 C562.06,611.76,560.65,609.02,568.09,595.94z"/>
  <path d="M 692.06 560.53 c-4.87-0.35-9.1-2.07-9.19-7.72c-0.08-5.2,3.66-7.44,8.47-7.61c4.99-0.18,9.34,1.41,9.62,7.15 C701.24,558.03,697.22,560.05,692.06,560.53z"/>
  <path d="M 526.32 702.49 c-2.98-0.43-5.56-2.53-5.61-9.43c-0.05-6.36,2.24-9.09,5.17-9.3c3.05-0.21,5.7,1.72,5.88,8.73 C531.93,699.43,529.47,701.9,526.32,702.49z"/>
  <path d="M 108.61 228.75 c0.42,1.39,1.14,3.55,1.72,5.75c0.63,2.37-0.47,3.68-3.28,3.18c-3.32-0.6-6.6-1.35-9.79-2.25c-2.56-0.72-2.93-2.44-1.14-4.58 c1.48-1.78,3.07-3.5,4.7-5.18c3.34-3.43,4.73-3.35,6.49,0.29C107.64,226.62,107.95,227.31,108.61,228.75z"/>
  <path d="M 82.13 266.74 c-1.06,1-2.66,2.61-4.37,4.11c-1.84,1.62-3.51,1.23-4.31-1.51c-0.95-3.24-1.75-6.51-2.37-9.77c-0.5-2.61,0.87-3.71,3.59-3.07 c2.25,0.53,4.51,1.18,6.74,1.89c4.56,1.45,5.11,2.73,2.65,5.93C83.59,264.92,83.11,265.5,82.13,266.74z"/>
  <path d="M 102.76 211 c-0.25,0.38-0.64,1.59-1.47,2.08c-5.91,3.46-12.25,5.96-18.94,7.41c-2.17,0.47-4.47-0.55-4.07-3.03 c0.95-5.87,2.3-11.72,5.53-16.86c0.54-0.85,1.78-1.49,2.82-1.76C89.54,198.08,102.46,207.35,102.76,211z"/>
</svg>